<?xml version="1.0" encoding="utf-8"?>
<!-- Generator: Adobe Illustrator 16.0.0, SVG Export Plug-In . SVG Version: 6.00 Build 0)  -->
<!DOCTYPE svg PUBLIC "-//W3C//DTD SVG 1.1//EN" "http://www.w3.org/Graphics/SVG/1.1/DTD/svg11.dtd">
<svg version="1.1" id="Layer_1" xmlns="http://www.w3.org/2000/svg" xmlns:xlink="http://www.w3.org/1999/xlink" x="0px" y="0px"
	 width="1468px" height="378px" viewBox="0 0 1468 378" enable-background="new 0 0 1468 378" xml:space="preserve">
<g id="XMLID_99_">
	<g id="XMLID_647_">
		<g id="XMLID_648_">
			<g id="XMLID_649_">
				<g id="XMLID_653_">
					<g id="XMLID_655_">
						<g id="XMLID_656_">
							<path id="XMLID_669_" fill="#404041" d="M599.404,283.496h52.437l-98.14-214.228h-14.301c-2.242,0-4.488,0.561-6.73,1.961
								c-1.962,1.123-3.647,3.085-4.488,5.05l-98.98,206.936h35.049l17.668-35.049H582.86L599.404,283.496z M533.51,139.087
								l42.903,92.532h-87.766L533.51,139.087z"/>
							<path id="XMLID_667_" fill="#404041" d="M719.699,283.496h-47.388V78.801c0-2.244,0.841-4.767,2.525-6.449
								c1.679-1.683,4.205-2.523,6.447-2.523h38.416V283.496z"/>
							<path id="XMLID_665_" fill="#404041" d="M761.479,134.881c0-2.243,0.84-4.767,2.525-6.448
								c1.68-1.685,4.205-2.523,6.447-2.523h38.695v157.866h-47.668V134.881L761.479,134.881z"/>
							<path id="XMLID_662_" fill="#404041" d="M849.244,135.162c0-2.243,0.844-4.767,2.807-6.449
								c1.682-1.682,4.207-2.803,6.445-2.803h38.98v12.337c5.605-4.486,11.775-8.132,18.785-11.216
								c7.01-2.805,15.422-4.486,24.955-4.486c10.098,0,19.35,1.963,27.479,5.889c8.135,3.926,15.143,9.255,21.311,15.983
								c5.891,6.729,10.377,14.581,13.742,23.554c3.086,8.973,4.764,18.507,4.764,28.6c0,12.896-1.959,24.955-5.605,35.893
								c-3.646,10.936-9.252,20.469-16.264,28.6c-7.01,8.133-15.422,14.301-25.518,18.789c-10.094,4.484-21.309,6.727-33.648,6.727
								c-6.17,0-11.775-0.279-16.264-0.557c-4.484-0.564-8.973-1.686-13.459-3.367v63.371h-48.23V135.162H849.244z M897.477,239.752
								c0,3.926,0.557,7.57,1.959,10.938c1.404,3.365,3.365,6.449,5.893,8.973c2.521,2.521,5.605,4.486,9.529,5.889
								c3.646,1.4,7.854,1.963,12.063,1.963c4.203,0,8.127-1.402,11.775-4.205c3.646-2.807,6.729-6.449,9.531-11.498
								c2.523-4.768,4.766-10.654,6.447-17.385c1.686-6.73,2.246-14.301,2.246-22.152c0-10.094-0.561-19.066-1.963-26.919
								c-1.404-7.569-3.365-14.299-5.889-19.348c-2.523-5.047-5.605-9.253-9.252-11.778c-3.367-2.522-7.291-3.924-11.779-3.924
								c-3.084,0-5.889,0.561-8.973,1.401c-2.803,0.842-5.609,2.244-8.131,4.207c-2.523,1.681-5.049,3.926-7.572,6.17
								c-2.242,2.242-4.484,5.045-6.449,7.567v69.543h0.564V239.752z"/>
							<path id="XMLID_659_" fill="#404041" d="M1132.453,127.591c-22.996-6.45-51.875-7.852-91.691,2.523
								c1.121,3.926,3.086,10.937,4.203,15.141c62.814-11.215,74.869-2.522,74.869,24.677v8.412
								c-11.494-0.84-24.955-2.803-36.17-2.803c-42.902-0.563-58.605,33.646-58.605,55.238c0,37.855,35.891,72.906,94.496,46.826
								v5.891h49.07V168.25C1168.904,146.098,1149.559,132.359,1132.453,127.591z M1064.035,231.34
								c0-18.225,14.861-32.244,33.086-33.648c11.496-0.84,18.506,1.121,22.713,3.648v54.117c-5.885,5.605-14.02,8.973-22.713,8.973
								C1078.896,264.709,1064.035,249.848,1064.035,231.34z"/>
							<path id="XMLID_657_" fill="#404041" d="M1181.805,122.825h50.752l49.912,97.58l41.223-91.13
								c0.838-1.683,1.959-3.364,3.92-4.486c1.965-1.122,3.646-1.683,5.891-1.683h27.197l-79.635,175.813
								c-19.063,47.672-65.609,41.221-74.303,41.221c0-7.574,0-19.35,0-26.639c6.445,0,27.756,0.279,37.289-10.375
								c1.965-2.244,4.207-6.73,5.611-9.816c1.402-3.082,2.523-5.605,3.645-8.129l5.609-12.619L1181.805,122.825z"/>
						</g>
					</g>
					<path id="XMLID_654_" fill="#00ADEE" d="M811.109,79.082c0,12.898-11.496,23.272-25.797,23.272s-25.797-10.374-25.797-23.272
						c0-12.897,11.496-23.275,25.797-23.275C799.334,55.528,811.109,66.184,811.109,79.082z"/>
				</g>
				<g id="XMLID_650_">
					<path id="XMLID_652_" fill="#00ADEE" d="M230.673,250.129c-33.367,40.938-76.268,65.615-120.853,65.615
						c-75.43,0-101.226-65.896-65.333-109.08c7.848-9.533,21.028-18.506,41.779-23.552c32.246-7.851,83.278,4.766,131.229,20.748
						c8.692-15.702,15.703-33.367,21.309-51.874H90.751v-14.86h76.271v-26.919H74.769V95.345h92.253V57.211c0,0,0-6.45,6.45-6.45
						h37.294v44.584h91.413v14.861h-91.132v26.919h74.305c-7.01,29.161-17.945,56.082-31.405,79.353
						c22.713,8.135,42.904,15.705,58.045,21.031c54.398,18.225,66.735,19.068,66.735,19.068l0,0V61.135
						c0-33.367-27.198-60.288-60.565-60.288H61.031c-33.37,0-60.568,27.199-60.568,60.288v256.289
						c0,33.369,27.198,60.287,60.568,60.287h257.131c33.367,0,60.565-27.197,60.565-60.287V314.9
						C378.727,314.9,280.307,273.959,230.673,250.129z"/>
					<path id="XMLID_651_" fill="#00ADEE" d="M92.434,205.543c-9.533,0.842-27.198,5.049-37.011,13.74
						c-29.163,25.236-11.778,71.504,47.108,71.504c34.211,0,68.419-21.873,95.336-56.645
						C160.012,215.357,127.485,202.18,92.434,205.543z"/>
				</g>
			</g>
		</g>
	</g>
	<g id="XMLID_86_">
		<path id="XMLID_96_" fill="#3E3B3B" d="M1405.566,6.737v40.097h-7.012V6.737h-12.898V0.289h32.527v6.448H1405.566z"/>
		<path id="XMLID_90_" fill="#3E3B3B" d="M1460.242,47.114V15.99l-10.65,22.714h-5.332l-10.934-22.714v31.125h-7.012V0.567h7.012
			l13.736,29.164l13.463-29.164h7.012v46.547H1460.242L1460.242,47.114z"/>
	</g>
</g>
</svg>
