<?xml version="1.0" encoding="utf-8"?>
<!-- Generator: Adobe Illustrator 24.0.1, SVG Export Plug-In . SVG Version: 6.00 Build 0)  -->
<svg version="1.1" id="Ebene_1" xmlns="http://www.w3.org/2000/svg" xmlns:xlink="http://www.w3.org/1999/xlink" x="0px" y="0px"
	 viewBox="0 0 875.4 259.7" style="enable-background:new 0 0 875.4 259.7;" xml:space="preserve">
<style type="text/css">
	.st0{fill-rule:evenodd;clip-rule:evenodd;fill:#DBC9A3;}
	.st1{fill-rule:evenodd;clip-rule:evenodd;fill:#263551;}
	.st2{fill:#263551;}
	.st3{fill-rule:evenodd;clip-rule:evenodd;fill:#FAB633;}
	.st4{fill-rule:evenodd;clip-rule:evenodd;fill:#FFFFFF;}
</style>
<g id="Logo">
	<path id="Gold" class="st0" d="M86.6,52c0,0,34,0,59.3,0c0.5,0.1-94.1,90.5-93.9,90.3c0-24.9,0-55.6,0-55.6
		C52,67.5,67.5,52,86.6,52L86.6,52z"/>
	<path class="st1" d="M129.5,175.2l-20.2-10.7c-22,22-39.1,39.1-39.2,39.1c4.9,2.7,10.5,4.2,16.5,4.2h86.5
		c19.1,0,34.6-15.5,34.6-34.6v-67.3L137,176.5C135.1,178.4,131.9,176.3,129.5,175.2z"/>
	<path class="st2" d="M295.2,133.7v0.3c6.4,3.3,11.1,9.7,14.7,17.7l18.7,41.1h-20.8l-17.7-39.7c-3.8-8.5-9.7-13.5-19.2-13.5h-11.1
		v53.2h-19.2V72.2c9.4-4.2,22.7-6.8,35.7-6.8c30.1,0,45.7,14.4,45.7,36.6C322.1,121,310.1,130.4,295.2,133.7L295.2,133.7z
		 M276.7,80.5c-6.2,0-12.8,1-16.8,2.6v42.3h14.7c17.8,0,28.2-6.4,28.2-22.5C302.8,89,294.5,80.5,276.7,80.5L276.7,80.5z
		 M374.4,194.8c-28,0-42-11.4-42-30.5c0-27.1,28.9-31.9,58.3-33.6v-6.1c0-12.3-8.1-16.6-20.6-16.6c-9.2,0-20.4,2.9-26.9,6l-5.1-13.5
		c7.8-3.4,20.9-6.9,33.9-6.9c23.3,0,37.3,9,37.3,33v61.3C402.4,191.7,388.1,194.8,374.4,194.8L374.4,194.8z M390.7,143.9
		c-19.8,1.1-39.7,2.7-39.7,20c0,10.3,7.9,16.6,22.9,16.6c6.3,0,13.7-1.1,16.8-2.5V143.9L390.7,143.9z M463.5,176.7
		c2.3,0,5.1-0.5,6.7-1.3v16.4c-2.4,1.1-7.2,2.2-12.3,2.2c-17.1,0-26.7-9.6-26.7-28.5v-55.2h-13.2V95.5h13.2V73l19.3-6v28.5h19.7
		v14.8h-19.7v54.1C450.5,173.3,456.3,176.7,463.5,176.7L463.5,176.7z M560.2,143.7l-64.6,9c2,17.5,13.3,26.3,29.8,26.3
		c9.7,0,20.2-2.3,26.9-6l5.8,14.8c-7.6,4-20.6,6.9-33.9,6.9c-30.7,0-47.8-19.7-47.8-50.7c0-29.8,16.6-50.5,43.8-50.5
		c25.3,0,40.2,16.6,40.2,42.8C560.4,138.7,560.4,141.2,560.2,143.7L560.2,143.7z M519.8,108c-15.2,0-25.1,11.5-25.4,31.8l47.1-6.5
		C541.3,116.3,532.8,108,519.8,108L519.8,108z M604.9,143.2c-4.7,0-10-0.5-13.2-1v50.6h-19.2V72c9-4.2,21.1-6.6,34.6-6.6
		c30,0,46.4,15.2,46.4,39.2C653.6,126.9,636.6,143.2,604.9,143.2L604.9,143.2z M607.3,80.5c-6.1,0-12.1,1.2-15.6,2.6v44
		c2.9,0.5,8,0.9,12.5,0.9c19.6,0,30.1-9,30.1-23.6C634.3,88.7,624.8,80.5,607.3,80.5L607.3,80.5z M728.7,192.8l-11.1-33.1h-46.4
		l-11.1,33.1h-20.4L683,67.3h22.9l43.3,125.4H728.7L728.7,192.8z M698.2,98.4c-2.3-6.9-3.6-14.9-3.6-14.9h-0.3c0,0-1.4,8-3.6,14.9
		l-15.4,46.8h38.5L698.2,98.4L698.2,98.4z M784.8,143.1v49.7h-19.6v-49.7l-38.6-75.7h21.1l27.2,56h0.3l27-56h21.1L784.8,143.1
		L784.8,143.1z"/>
</g>
<path class="st3" d="M90.7,154.7c-1.4-0.9-1.9-2.4-2-6.9l0.3-26c-0.1-2.7,1.9-3.2,4.4-2.1l35.9,17.9c2.5,1.1,3,1.5,4.9-0.5
	l68.3-68.6c-6.1-9.9-17-16.5-29.5-16.5c0,0-12.1,0-27.2,0c0.5-0.4-94,90.5-93.9,90.3c0,16.8,0,30.9,0,30.9
	c0,13.1,7.5,24.6,18.1,30.5c0.1,0,17.2-17.1,39.2-39.1L90.7,154.7z"/>
<path id="Haken" class="st4" d="M93.5,119.6c-2.5-1.1-4.5-0.6-4.4,2.1l-0.3,26c0.1,4.6,0.5,6,2,6.9l38.8,20.5
	c2.5,1.1,5.7,3.3,7.5,1.3l70.7-70.6c0.1-0.1,0.5-20.3-0.3-25.1c-1.3-7.6-4.8-12.2-4.8-12.2l-68.3,68.6c-1.9,1.9-2.4,1.6-4.9,0.5
	L93.5,119.6L93.5,119.6z"/>
</svg>
