<?xml version="1.0" encoding="utf-8"?>
<!-- Generator: Adobe Illustrator 24.1.0, SVG Export Plug-In . SVG Version: 6.00 Build 0)  -->
<svg version="1.1" id="Ebene_1" xmlns="http://www.w3.org/2000/svg" xmlns:xlink="http://www.w3.org/1999/xlink" x="0px" y="0px"
	 viewBox="0 0 875.4 259.7" style="enable-background:new 0 0 875.4 259.7;" xml:space="preserve">
<style type="text/css">
	.st0{fill:#E4003F;}
</style>
<g>
	<path class="st0" d="M347.7,87.3v88.5h-28.1v-12.5c-1.1,2.1-2.6,4-4.4,5.8c-1.8,1.7-4,3.3-6.3,4.6c-2.4,1.3-5,2.3-7.8,3.1
		s-5.6,1.2-8.5,1.2c-6.3,0-12.2-1.2-17.6-3.6c-5.3-2.4-9.9-5.6-13.7-9.7c-3.8-4.1-6.7-9-8.8-14.7c-2.1-5.7-3.1-11.9-3.1-18.5
		c0-6.6,1-12.8,3.1-18.5c2.1-5.7,5.1-10.6,8.8-14.7c3.8-4.1,8.4-7.4,13.7-9.7c5.3-2.4,11.2-3.6,17.6-3.6c2.8,0,5.6,0.4,8.5,1.2
		c2.8,0.8,5.4,1.8,7.8,3.2c2.4,1.4,4.5,2.9,6.3,4.8c1.8,1.8,3.3,3.8,4.4,5.7V87.3H347.7z M298.5,154.2c3.2,0,6.1-0.6,8.6-1.8
		c2.6-1.2,4.8-2.8,6.6-4.9c1.8-2,3.3-4.4,4.3-7.2c1-2.8,1.6-5.7,1.6-8.7c0-3-0.6-6-1.6-8.6c-1-2.7-2.5-5.1-4.3-7.2
		c-1.8-2.1-4-3.8-6.6-5c-2.6-1.2-5.4-1.8-8.6-1.8c-3.2,0-6.1,0.6-8.6,1.8c-2.6,1.2-4.8,2.8-6.6,5c-1.8,2.1-3.3,4.5-4.3,7.2
		c-1,2.7-1.6,5.6-1.6,8.6c0,3,0.6,6,1.6,8.7c1,2.8,2.5,5.1,4.3,7.2c1.8,2,4,3.7,6.6,4.9C292.4,153.6,295.3,154.2,298.5,154.2z"/>
	<path class="st0" d="M454.6,138.4c0.1,2.7,0.6,5.2,1.2,7.6c0.6,2.4,1.7,4.5,3.3,6.2c1.6,1.7,3.5,3.2,6,4.2c2.5,1,5.5,1.6,9.2,1.6
		c4.9,0,8.6-1,11.1-2.9c2.5-1.9,4.2-4.3,5.2-7.2h27.6c-0.6,4.1-2,8.1-4.3,11.8c-2.3,3.7-5.2,6.9-9,9.6c-3.8,2.8-8.2,5-13.2,6.5
		c-5.1,1.6-10.8,2.4-17.2,2.4c-7.7,0-14.5-1.1-20.5-3.4s-10.9-5.5-15-9.6c-4-4.1-7.1-9.1-9.2-14.8c-2.1-5.7-3.1-11.9-3.1-18.8
		c0-6.5,1-12.6,3-18.2c2-5.6,5.1-10.6,9-14.8c4-4.2,8.9-7.5,14.7-10s12.6-3.7,20.3-3.7c7,0,13.2,1.1,18.8,3.3
		c5.6,2.2,10.4,5.1,14.3,8.8s7.1,8,9.2,12.9c2.1,4.9,3.2,10,3.2,15.4c0,1.8,0,3.8-0.1,5.9c-0.1,2.1-0.4,4.5-0.8,7.2L454.6,138.4
		L454.6,138.4z M473.5,103.7c-5.5,0-10,1.6-13.6,4.8c-3.6,3.2-5.3,7.8-5.3,13.8h37.1c0-5.8-1.7-10.3-5.1-13.6
		C483.3,105.3,478.9,103.7,473.5,103.7z"/>
	<path class="st0" d="M734.3,88.3v88.5h-28.1v-12.5c-1.1,2.1-2.6,4-4.4,5.8c-1.8,1.7-4,3.3-6.3,4.6c-2.4,1.3-5,2.3-7.8,3.1
		c-2.8,0.8-5.6,1.2-8.5,1.2c-6.3,0-12.2-1.2-17.6-3.6s-9.9-5.6-13.7-9.7c-3.8-4.1-6.7-9-8.8-14.7c-2.1-5.7-3.1-11.9-3.1-18.5
		c0-6.6,1-12.8,3.1-18.5c2.1-5.7,5.1-10.6,8.8-14.7c3.8-4.1,8.4-7.4,13.7-9.7c5.3-2.4,11.2-3.6,17.6-3.6c2.8,0,5.6,0.4,8.5,1.2
		c2.8,0.8,5.4,1.8,7.8,3.2c2.4,1.4,4.5,2.9,6.3,4.8c1.8,1.8,3.3,3.8,4.4,5.7V88.2L734.3,88.3L734.3,88.3z M685.2,155.1
		c3.2,0,6.1-0.6,8.6-1.8c2.6-1.2,4.8-2.8,6.6-4.9c1.8-2,3.3-4.4,4.3-7.2c1-2.8,1.6-5.7,1.6-8.7c0-3-0.6-6-1.6-8.6
		c-1-2.7-2.5-5.1-4.3-7.2c-1.8-2.1-4-3.8-6.6-5c-2.6-1.2-5.4-1.8-8.6-1.8c-3.2,0-6.1,0.6-8.6,1.8c-2.6,1.2-4.8,2.8-6.6,5
		c-1.8,2.1-3.3,4.5-4.3,7.2c-1,2.7-1.6,5.6-1.6,8.6c0,3,0.6,6,1.6,8.7c1,2.8,2.5,5.1,4.3,7.2c1.8,2,4,3.7,6.6,4.9
		C679.1,154.5,682,155.1,685.2,155.1z"/>
	<g>
		<path class="st0" d="M793.6,198.8h-32.9l15.8-31.9L741,88.3h34.7l17.4,46.8l21.8-46.8h32.9L793.6,198.8z"/>
	</g>
	<path class="st0" d="M413.1,154.9c-1.7,0-3.3-0.2-4.8-0.6c-1.5-0.4-2.8-1.1-3.9-2.1c-1.1-1-1.9-2.6-2.6-4.5s-0.9-4.6-0.9-7.9v-31.5
		h16.4l10.8-21h-27.1V56.8L373,71.9v15.4h-14v21h14v37.9c0,7.4,1,13.1,3,17.4c2,4.2,4.6,7.4,7.7,9.4s6.5,3.3,10.2,3.8
		c3.7,0.5,7.2,0.7,10.5,0.7c4.1,0,7.8-0.2,10.9-0.5c3.1-0.3,5.7-0.6,7.8-1v-21.5c-1.4,0.3-2.9,0.5-4.8,0.5S414.8,154.9,413.1,154.9z
		"/>
	<path class="st0" d="M249.5,87.2c-2.2-0.8-4.9-1.4-8-1.4c-6.2,0-11.8,1.6-16.6,4.8c-4.9,3.2-8.3,6.9-10.4,11V87.3h-28.1v88.5h28.1
		v-34.6c0-10.8,2.3-18.4,7-23c4-3.9,9.2-6.2,15.4-6.6L249.5,87.2z"/>
	<g>
		<g>
			<path class="st0" d="M112.4,80.5c-9.1-5.4-19.7-8.5-31-8.5c-24.1,0.3-44.7,14.8-53.8,35.5l29.7,29.1L112.4,80.5z"/>
		</g>
		<path class="st0" d="M136.3,107.5L136.3,107.5l-77.5,79l0,0c7.3,3,15.3,4.7,23.6,4.7c32.9-0.4,59.3-27.2,59-60.1
			C141.4,122.7,139.6,114.7,136.3,107.5z"/>
	</g>
	<path class="st0" d="M558.4,100c1.1-1.9,2.6-3.9,4.4-5.7c1.8-1.8,4-3.4,6.4-4.8c2.5-1.4,5.1-2.4,7.8-3.2s5.6-1.2,8.5-1.2
		c6.3,0,12.2,1.2,17.6,3.6c5.3,2.4,9.9,5.6,13.7,9.7c3.8,4.1,6.7,9,8.8,14.7c2.1,5.7,3.1,11.9,3.1,18.5c0,6.6-1,12.8-3.1,18.5
		s-5.1,10.6-8.8,14.7s-8.4,7.4-13.7,9.7c-5.3,2.4-11.2,3.6-17.6,3.6c-2.9,0-5.8-0.4-8.5-1.2s-5.3-1.8-7.8-3.2
		c-2.5-1.4-4.6-2.9-6.4-4.7s-3.3-3.7-4.4-5.8v35.6h-28.1V87.3h28.1V100z M579.8,109c-3.2,0-6.1,0.6-8.7,1.8
		c-2.7,1.2-4.9,2.8-6.7,4.9c-1.8,2-3.3,4.4-4.3,7.2c-1,2.8-1.6,5.7-1.6,8.7c0,3,0.6,6,1.6,8.7c1,2.8,2.5,5.1,4.3,7.2
		c1.8,2,4,3.7,6.7,4.9c2.7,1.2,5.5,1.8,8.7,1.8c3,0,5.9-0.6,8.5-1.8c2.6-1.2,4.8-2.8,6.6-4.9c1.8-2,3.3-4.4,4.3-7.2
		c1-2.8,1.6-5.7,1.6-8.7c0-3-0.6-6-1.6-8.7c-1-2.8-2.5-5.1-4.3-7.2c-1.8-2-4-3.7-6.6-4.9C585.6,109.6,582.9,109,579.8,109z"/>
</g>
</svg>
